<svg xmlns="http://www.w3.org/2000/svg" xmlns:xlink="http://www.w3.org/1999/xlink" width="150" zoomAndPan="magnify" viewBox="0 0 112.5 112.499997" height="150" preserveAspectRatio="xMidYMid meet" version="1.0"><defs><clipPath id="4527dbc200"><path d="M 0 0 L 112.003906 0 L 112.003906 112.003906 L 0 112.003906 Z M 0 0 " clip-rule="nonzero"/></clipPath><clipPath id="25a906d3e1"><path d="M 0 11.195312 L 33.433594 11.195312 L 33.433594 40.40625 L 0 40.40625 Z M 0 11.195312 " clip-rule="nonzero"/></clipPath><clipPath id="2e92e0594b"><path d="M 16.710938 40.40625 L 33.421875 11.195312 L 0 11.195312 Z M 16.710938 40.40625 " clip-rule="nonzero"/></clipPath><clipPath id="54a4ea1eeb"><path d="M 19.304688 45.9375 L 93.246094 45.9375 L 93.246094 69.835938 L 19.304688 69.835938 Z M 19.304688 45.9375 " clip-rule="nonzero"/></clipPath><clipPath id="8886c6e657"><path d="M 32.671875 69.835938 L 79.824219 69.835938 L 93.191406 45.9375 L 19.304688 45.9375 Z M 32.671875 69.835938 " clip-rule="nonzero"/></clipPath><clipPath id="d00dd503ea"><path d="M 39.792969 11.195312 L 112 11.195312 L 112 35.097656 L 39.792969 35.097656 Z M 39.792969 11.195312 " clip-rule="nonzero"/></clipPath><clipPath id="02c18f26bd"><path d="M 53.160156 35.097656 L 98.632812 35.097656 L 112.003906 11.195312 L 39.792969 11.195312 Z M 53.160156 35.097656 " clip-rule="nonzero"/></clipPath><clipPath id="499e416a36"><path d="M 18 11 L 68 11 L 68 70 L 18 70 Z M 18 11 " clip-rule="nonzero"/></clipPath><clipPath id="1fd87ebbc4"><path d="M 67.097656 12.296875 L 32.546875 69.847656 L 12.054688 57.542969 L 46.609375 -0.00390625 Z M 67.097656 12.296875 " clip-rule="nonzero"/></clipPath><clipPath id="a9e3c6c70e"><path d="M 39.726562 11.457031 L 18.945312 46.066406 L 32.554688 69.832031 L 67.097656 12.296875 Z M 39.726562 11.457031 " clip-rule="nonzero"/></clipPath><clipPath id="52be484335"><path d="M 43 47 L 93 47 L 93 112 L 43 112 Z M 43 47 " clip-rule="nonzero"/></clipPath><clipPath id="b7054176d9"><path d="M 92.195312 47.796875 L 57.617188 111.140625 L 36.640625 99.691406 L 71.214844 36.34375 Z M 92.195312 47.796875 " clip-rule="nonzero"/></clipPath><clipPath id="aa7a4f7ae7"><path d="M 64.8125 48.078125 L 43.070312 87.910156 L 57.644531 111.09375 L 92.195312 47.796875 Z M 64.8125 48.078125 " clip-rule="nonzero"/></clipPath><clipPath id="070159cb02"><path d="M 37.714844 80.671875 L 63.03125 80.671875 L 63.03125 99.515625 L 37.714844 99.515625 Z M 37.714844 80.671875 " clip-rule="nonzero"/></clipPath><clipPath id="de2b689384"><path d="M 50.359375 99.515625 L 63.007812 80.671875 L 37.714844 80.671875 Z M 50.359375 99.515625 " clip-rule="nonzero"/></clipPath><clipPath id="1cd64eeeec"><path d="M 83.023438 16.691406 L 108.402344 16.691406 L 108.402344 41.585938 L 83.023438 41.585938 Z M 83.023438 16.691406 " clip-rule="nonzero"/></clipPath><clipPath id="3787d4d6b1"><path d="M 95.667969 41.585938 L 108.316406 16.691406 L 83.023438 16.691406 Z M 95.667969 41.585938 " clip-rule="nonzero"/></clipPath></defs><g clip-path="url(#4527dbc200)"><path fill="#ffffff" d="M 0 0 L 112.003906 0 L 112.003906 112.003906 L 0 112.003906 Z M 0 0 " fill-opacity="1" fill-rule="nonzero"/><path fill="#ffffff" d="M 0 0 L 112.003906 0 L 112.003906 112.003906 L 0 112.003906 Z M 0 0 " fill-opacity="1" fill-rule="nonzero"/></g><g clip-path="url(#25a906d3e1)"><g clip-path="url(#2e92e0594b)"><path fill="#ffffff" d="M 0 11.195312 L 33.433594 11.195312 L 33.433594 40.40625 L 0 40.40625 Z M 0 11.195312 " fill-opacity="1" fill-rule="nonzero"/></g></g><g clip-path="url(#54a4ea1eeb)"><g clip-path="url(#8886c6e657)"><path fill="#5ce1e6" d="M 19.304688 45.9375 L 93.152344 45.9375 L 93.152344 69.835938 L 19.304688 69.835938 Z M 19.304688 45.9375 " fill-opacity="1" fill-rule="nonzero"/></g></g><g clip-path="url(#d00dd503ea)"><g clip-path="url(#02c18f26bd)"><path fill="#5ce1e6" d="M 39.792969 11.195312 L 111.960938 11.195312 L 111.960938 35.097656 L 39.792969 35.097656 Z M 39.792969 11.195312 " fill-opacity="1" fill-rule="nonzero"/></g></g><g clip-path="url(#499e416a36)"><g clip-path="url(#1fd87ebbc4)"><g clip-path="url(#a9e3c6c70e)"><path fill="#5ce1e6" d="M 67.097656 12.296875 L 32.546875 69.847656 L 12.054688 57.542969 L 46.609375 -0.00390625 Z M 67.097656 12.296875 " fill-opacity="1" fill-rule="nonzero"/></g></g></g><g clip-path="url(#52be484335)"><g clip-path="url(#b7054176d9)"><g clip-path="url(#aa7a4f7ae7)"><path fill="#5ce1e6" d="M 92.195312 47.796875 L 57.660156 111.058594 L 36.683594 99.609375 L 71.214844 36.34375 Z M 92.195312 47.796875 " fill-opacity="1" fill-rule="nonzero"/></g></g></g><g clip-path="url(#070159cb02)"><g clip-path="url(#de2b689384)"><path fill="#5ce1e6" d="M 37.714844 80.671875 L 63.03125 80.671875 L 63.03125 99.515625 L 37.714844 99.515625 Z M 37.714844 80.671875 " fill-opacity="1" fill-rule="nonzero"/></g></g><g clip-path="url(#1cd64eeeec)"><g clip-path="url(#3787d4d6b1)"><path fill="#5ce1e6" d="M 83.023438 16.691406 L 108.308594 16.691406 L 108.308594 41.585938 L 83.023438 41.585938 Z M 83.023438 16.691406 " fill-opacity="1" fill-rule="nonzero"/></g></g></svg>